<mxfile host="65bd71144e">
    <diagram id="h5lZfFXWTMoevlrQVweT" name="Page-1">
        <mxGraphModel dx="885" dy="537" grid="1" gridSize="10" guides="1" tooltips="1" connect="1" arrows="1" fold="1" page="1" pageScale="1" pageWidth="1169" pageHeight="827" background="#ffffff" math="0" shadow="0">
            <root>
                <mxCell id="0"/>
                <mxCell id="1" parent="0"/>
                <mxCell id="4" value="&lt;font color=&quot;#000000&quot;&gt;Raw Data&lt;/font&gt;" style="whiteSpace=wrap;html=1;labelBackgroundColor=none;fontColor=#FFFFFF;fillColor=none;strokeColor=#000000;" vertex="1" parent="1">
                    <mxGeometry x="40" y="320" width="80" height="40" as="geometry"/>
                </mxCell>
            </root>
        </mxGraphModel>
    </diagram>
</mxfile>